HIERARCHY
ROOT Hips
{
	OFFSET 0.000000 97.167313 0.000000
	CHANNELS 6 Xposition Yposition Zposition Xrotation Yrotation Zrotation
	JOINT Spine
	{
		OFFSET 0.000000 13.784798 0.064400
		CHANNELS 3 Xrotation Yrotation Zrotation
		JOINT Spine1
		{
			OFFSET 0.000000 12.037903 0.404700
			CHANNELS 3 Xrotation Yrotation Zrotation
			JOINT Spine2
			{
				OFFSET 0.000000 17.795601 0.420200
				CHANNELS 3 Xrotation Yrotation Zrotation
				JOINT Neck
				{
					OFFSET 0.000000 39.131302 11.954600
					CHANNELS 3 Xrotation Yrotation Zrotation
					JOINT Head
					{
						OFFSET 0.000000 14.456192 15.627699
						CHANNELS 3 Xrotation Yrotation Zrotation
						JOINT HeadTop_End
						{
							OFFSET 0.000000 15.703506 7.603401
							CHANNELS 3 Xrotation Yrotation Zrotation
							End Site
							{
								OFFSET 0.000000 17.447403 0.000000
							}
						}
					}
				}
				JOINT LeftShoulder
				{
					OFFSET 17.399500 24.608795 1.168800
					CHANNELS 3 Xrotation Yrotation Zrotation
					JOINT LeftArm
					{
						OFFSET 18.980635 5.765305 1.818600
						CHANNELS 3 Xrotation Yrotation Zrotation
						JOINT LeftForeArm
						{
							OFFSET 49.290169 0.000000 0.000000
							CHANNELS 3 Xrotation Yrotation Zrotation
							JOINT LeftHand
							{
								OFFSET 31.562012 0.000000 0.000000
								CHANNELS 3 Xrotation Yrotation Zrotation
								JOINT LeftHandThumb1
								{
									OFFSET 6.133995 -4.388519 7.076070
									CHANNELS 3 Xrotation Yrotation Zrotation
									JOINT LeftHandThumb2
									{
										OFFSET 6.037666 -3.485840 3.485847
										CHANNELS 3 Xrotation Yrotation Zrotation
										JOINT LeftHandThumb3
										{
											OFFSET 6.496506 -3.750763 3.750761
											CHANNELS 3 Xrotation Yrotation Zrotation
											JOINT LeftHandThumb4
											{
												OFFSET 5.616882 -3.242905 3.242910
												CHANNELS 3 Xrotation Yrotation Zrotation
												End Site
												{
													OFFSET -1.254608 7.132141 0.375429
												}
											}
										}
									}
								}
								JOINT LeftHandPinky1
								{
									OFFSET 18.920792 -0.453171 -11.426712
									CHANNELS 3 Xrotation Yrotation Zrotation
									JOINT LeftHandPinky2
									{
										OFFSET 4.919586 0.000000 0.000000
										CHANNELS 3 Xrotation Yrotation Zrotation
										JOINT LeftHandPinky3
										{
											OFFSET 5.233047 0.000000 0.000000
											CHANNELS 3 Xrotation Yrotation Zrotation
											JOINT LeftHandPinky4
											{
												OFFSET 5.571716 0.000000 0.000000
												CHANNELS 3 Xrotation Yrotation Zrotation
												End Site
												{
													OFFSET -3.459808 4.342407 -0.466164
												}
											}
										}
									}
								}
								JOINT LeftHandRing1
								{
									OFFSET 22.726120 -0.094986 -6.500475
									CHANNELS 3 Xrotation Yrotation Zrotation
									JOINT LeftHandRing2
									{
										OFFSET 6.408615 0.000000 0.000000
										CHANNELS 3 Xrotation Yrotation Zrotation
										JOINT LeftHandRing3
										{
											OFFSET 6.150223 0.000000 0.000000
											CHANNELS 3 Xrotation Yrotation Zrotation
											JOINT LeftHandRing4
											{
												OFFSET 6.145386 0.000000 0.000000
												CHANNELS 3 Xrotation Yrotation Zrotation
												End Site
												{
													OFFSET -3.671402 4.923981 -0.202372
												}
											}
										}
									}
								}
								JOINT LeftHandMiddle1
								{
									OFFSET 23.373947 0.000000 0.000001
									CHANNELS 3 Xrotation Yrotation Zrotation
									JOINT LeftHandMiddle2
									{
										OFFSET 6.996567 0.000000 0.000000
										CHANNELS 3 Xrotation Yrotation Zrotation
										JOINT LeftHandMiddle3
										{
											OFFSET 7.015945 0.000000 0.000000
											CHANNELS 3 Xrotation Yrotation Zrotation
											JOINT LeftHandMiddle4
											{
												OFFSET 7.721573 0.000000 0.000000
												CHANNELS 3 Xrotation Yrotation Zrotation
												End Site
												{
													OFFSET -4.651108 6.158463 0.251582
												}
											}
										}
									}
								}
								JOINT LeftHandIndex1
								{
									OFFSET 21.310577 -0.490082 6.209344
									CHANNELS 3 Xrotation Yrotation Zrotation
									JOINT LeftHandIndex2
									{
										OFFSET 7.536453 0.000000 0.000000
										CHANNELS 3 Xrotation Yrotation Zrotation
										JOINT LeftHandIndex3
										{
											OFFSET 7.512344 0.000000 0.000000
											CHANNELS 3 Xrotation Yrotation Zrotation
											JOINT LeftHandIndex4
											{
												OFFSET 10.212402 0.000000 0.000001
												CHANNELS 3 Xrotation Yrotation Zrotation
												End Site
												{
													OFFSET -5.180801 8.690506 1.388433
												}
											}
										}
									}
								}
							}
						}
					}
				}
				JOINT RightShoulder
				{
					OFFSET -17.399500 24.608795 1.168800
					CHANNELS 3 Xrotation Yrotation Zrotation
					JOINT RightArm
					{
						OFFSET -18.980635 5.765305 1.818600
						CHANNELS 3 Xrotation Yrotation Zrotation
						JOINT RightForeArm
						{
							OFFSET -49.290169 0.000000 0.000000
							CHANNELS 3 Xrotation Yrotation Zrotation
							JOINT RightHand
							{
								OFFSET -31.562012 0.000000 0.000000
								CHANNELS 3 Xrotation Yrotation Zrotation
								JOINT RightHandThumb1
								{
									OFFSET -6.133995 -4.388519 7.076070
									CHANNELS 3 Xrotation Yrotation Zrotation
									JOINT RightHandThumb2
									{
										OFFSET -6.037666 -3.485840 3.485847
										CHANNELS 3 Xrotation Yrotation Zrotation
										JOINT RightHandThumb3
										{
											OFFSET -6.496506 -3.750763 3.750761
											CHANNELS 3 Xrotation Yrotation Zrotation
											JOINT RightHandThumb4
											{
												OFFSET -5.616882 -3.242905 3.242910
												CHANNELS 3 Xrotation Yrotation Zrotation
												End Site
												{
													OFFSET 1.254608 7.132141 0.375429
												}
											}
										}
									}
								}
								JOINT RightHandIndex1
								{
									OFFSET -21.310577 -0.490082 6.209344
									CHANNELS 3 Xrotation Yrotation Zrotation
									JOINT RightHandIndex2
									{
										OFFSET -7.536453 0.000000 0.000000
										CHANNELS 3 Xrotation Yrotation Zrotation
										JOINT RightHandIndex3
										{
											OFFSET -7.512344 0.000000 0.000000
											CHANNELS 3 Xrotation Yrotation Zrotation
											JOINT RightHandIndex4
											{
												OFFSET -10.212402 0.000000 0.000001
												CHANNELS 3 Xrotation Yrotation Zrotation
												End Site
												{
													OFFSET 5.180801 8.690506 1.388433
												}
											}
										}
									}
								}
								JOINT RightHandMiddle1
								{
									OFFSET -23.373947 0.000000 0.000001
									CHANNELS 3 Xrotation Yrotation Zrotation
									JOINT RightHandMiddle2
									{
										OFFSET -6.996567 0.000000 0.000000
										CHANNELS 3 Xrotation Yrotation Zrotation
										JOINT RightHandMiddle3
										{
											OFFSET -7.015945 0.000000 0.000000
											CHANNELS 3 Xrotation Yrotation Zrotation
											JOINT RightHandMiddle4
											{
												OFFSET -7.721573 0.000000 0.000000
												CHANNELS 3 Xrotation Yrotation Zrotation
												End Site
												{
													OFFSET 4.651108 6.158463 0.251582
												}
											}
										}
									}
								}
								JOINT RightHandRing1
								{
									OFFSET -22.726120 -0.094986 -6.500475
									CHANNELS 3 Xrotation Yrotation Zrotation
									JOINT RightHandRing2
									{
										OFFSET -6.408615 0.000000 0.000000
										CHANNELS 3 Xrotation Yrotation Zrotation
										JOINT RightHandRing3
										{
											OFFSET -6.150223 0.000000 0.000000
											CHANNELS 3 Xrotation Yrotation Zrotation
											JOINT RightHandRing4
											{
												OFFSET -6.145386 0.000000 0.000000
												CHANNELS 3 Xrotation Yrotation Zrotation
												End Site
												{
													OFFSET 3.671402 4.923981 -0.202372
												}
											}
										}
									}
								}
								JOINT RightHandPinky1
								{
									OFFSET -18.920792 -0.453171 -11.426712
									CHANNELS 3 Xrotation Yrotation Zrotation
									JOINT RightHandPinky2
									{
										OFFSET -4.919586 0.000000 0.000000
										CHANNELS 3 Xrotation Yrotation Zrotation
										JOINT RightHandPinky3
										{
											OFFSET -5.233047 0.000000 0.000000
											CHANNELS 3 Xrotation Yrotation Zrotation
											JOINT RightHandPinky4
											{
												OFFSET -5.571716 0.000000 0.000000
												CHANNELS 3 Xrotation Yrotation Zrotation
												End Site
												{
													OFFSET 3.459808 4.342407 -0.466164
												}
											}
										}
									}
								}
							}
						}
					}
				}
			}
		}
	}
	JOINT LeftUpLeg
	{
		OFFSET 19.899099 -7.885101 -3.429500
		CHANNELS 3 Xrotation Yrotation Zrotation
		JOINT LeftLeg
		{
			OFFSET 1.745560 -36.997807 10.304700
			CHANNELS 3 Xrotation Yrotation Zrotation
			JOINT LeftFoot
			{
				OFFSET -1.745558 -29.803308 -13.615400
				CHANNELS 3 Xrotation Yrotation Zrotation
				JOINT LeftToeBase
				{
					OFFSET 1.181900 -18.539904 15.226099
					CHANNELS 3 Xrotation Yrotation Zrotation
					JOINT LeftToe_End
					{
						OFFSET -0.863701 1.402801 16.534700
						CHANNELS 3 Xrotation Yrotation Zrotation
						End Site
						{
							OFFSET 0.000000 16.616566 0.000000
						}
					}
				}
			}
		}
	}
	JOINT RightUpLeg
	{
		OFFSET -19.899099 -7.885101 -3.429500
		CHANNELS 3 Xrotation Yrotation Zrotation
		JOINT RightLeg
		{
			OFFSET -1.745560 -36.997807 10.304700
			CHANNELS 3 Xrotation Yrotation Zrotation
			JOINT RightFoot
			{
				OFFSET 1.745558 -29.803308 -13.615400
				CHANNELS 3 Xrotation Yrotation Zrotation
				JOINT RightToeBase
				{
					OFFSET -1.181900 -18.539904 15.226099
					CHANNELS 3 Xrotation Yrotation Zrotation
					JOINT RightToe_End
					{
						OFFSET 0.863701 1.402801 16.534700
						CHANNELS 3 Xrotation Yrotation Zrotation
						End Site
						{
							OFFSET 0.000000 16.616566 0.000000
						}
					}
				}
			}
		}
	}
}
MOTION
Frames: 6
Frame Time: 0.033333
-1.214266 92.556770 1.307706 2.912703 -28.995584 1.056405 7.836789 -0.338857 -2.550301 1.099246 -0.880987 2.380712 1.108612 -0.591240 2.441325 -3.843860 18.019388 -6.496641 -6.330991 13.021468 0.302405 -0.000000 0.000000 0.000000 -0.039921 -8.525335 -0.061211 -55.225898 0.059376 -41.747400 11.626618 -65.654107 13.238218 -50.182585 12.344173 4.513875 17.589889 -5.614107 -12.935916 10.897048 26.231577 8.652541 20.924629 51.117720 0.214383 0.000001 0.000003 -0.000009 10.030129 13.648618 -84.751993 0.876917 0.062093 -64.595483 1.141258 1.253181 -55.016313 0.000001 0.000001 -0.000000 8.573008 2.179148 -75.148958 -0.207668 1.009148 -57.855070 0.443081 1.742139 -53.581260 0.000000 0.000000 0.000005 7.548222 1.149492 -63.780450 1.807872 1.475541 -64.568025 0.131629 -0.912252 -43.272445 0.000001 -0.000001 0.000009 13.980857 1.201536 -55.004394 0.370889 1.162840 -65.441934 1.983811 2.149090 -57.665149 -0.000001 0.000003 0.000000 4.849709 7.751560 5.560543 -0.932380 -2.177464 61.845963 11.246170 18.949480 -3.963446 -0.931264 5.964326 6.475999 15.765755 -2.683026 -17.207007 -2.198315 -31.113554 7.361240 -6.532965 -4.117000 2.390542 0.000001 -0.000001 0.000001 2.293814 -3.670751 8.482397 -2.271724 -2.390574 18.673997 -2.043687 -4.739740 14.167559 -0.000002 -0.000001 -0.000002 -1.772828 -5.663872 13.721177 0.123577 -4.964171 27.004340 -0.689233 -1.184466 16.150645 0.000000 0.000000 -0.000004 -3.263087 -8.562151 11.769110 4.027471 -4.056270 33.262215 2.026964 -3.278813 15.590998 -0.000000 -0.000000 -0.000003 -6.474160 -11.347968 23.260735 10.740127 -2.590924 34.828938 6.341897 -3.099284 15.307111 -0.000001 -0.000001 -0.000001 -13.621301 18.019764 14.225124 17.130386 10.553740 -2.461941 -4.774638 -1.692003 -8.497198 -0.145165 0.007831 -0.311783 0.000000 -0.000000 0.000000 -9.547479 -1.103612 -9.789615 13.141554 10.011158 1.019842 -6.841902 -1.415064 7.740449 -1.288147 -0.016745 0.149983 -0.000000 -0.000001 -0.000000 
-1.220756 92.556633 1.301478 2.887142 -28.980592 1.052151 7.802846 -0.385746 -2.519937 1.099872 -0.896056 2.383284 1.121236 -0.610447 2.444815 -3.775209 18.049335 -6.546780 -6.385563 13.039469 0.337726 0.000000 -0.000000 0.000000 -0.055112 -8.521954 -0.148009 -55.110399 0.032408 -41.688015 11.317289 -65.608953 12.953947 -50.178794 12.324298 4.529083 17.589885 -5.614108 -12.935912 10.897048 26.231582 8.652544 20.924636 51.117716 0.214379 0.000000 -0.000001 -0.000001 10.030128 13.648622 -84.751986 0.876917 0.062091 -64.595483 1.141259 1.253183 -55.016313 0.000001 0.000001 -0.000004 8.573008 2.179148 -75.148958 -0.207667 1.009148 -57.855076 0.443080 1.742141 -53.581249 0.000000 -0.000001 0.000005 7.548223 1.149493 -63.780443 1.807875 1.475541 -64.568019 0.131632 -0.912250 -43.272438 0.000000 -0.000001 0.000009 13.980858 1.201538 -55.004388 0.370888 1.162840 -65.441934 1.983817 2.149094 -57.665156 -0.000002 0.000003 0.000001 4.846570 7.754875 5.519814 -0.845293 -2.236682 61.861945 11.313960 19.163621 -4.026636 -0.922186 5.859182 6.526915 15.777356 -2.789903 -17.231179 -2.138850 -31.187511 7.375986 -6.466140 -4.272588 2.349565 0.000001 0.000000 0.000001 2.316581 -3.773480 8.589934 -2.271657 -2.392690 18.780054 -2.040147 -4.740867 14.273475 0.000000 -0.000001 -0.000001 -1.772351 -5.716599 13.828605 0.126913 -4.964778 27.114955 -0.689237 -1.186481 16.260925 -0.000000 0.000002 -0.000008 -3.274130 -8.541650 11.926996 4.027100 -4.056426 33.400216 2.031310 -3.281062 15.729753 -0.000001 -0.000000 -0.000005 -6.632799 -11.303159 23.431814 10.742148 -2.593033 34.959367 6.354954 -3.088082 15.499344 0.000002 0.000001 -0.000003 -13.600725 18.023688 14.217546 17.122412 10.540184 -2.456649 -4.765937 -1.692474 -8.497753 -0.145165 0.007831 -0.311784 0.000000 -0.000000 0.000000 -9.527432 -1.106391 -9.791563 13.164052 9.998090 1.017004 -6.857768 -1.415748 7.739079 -1.288147 -0.016743 0.149983 -0.000000 -0.000001 0.000000 
-1.226178 92.555840 1.295738 2.863454 -28.963868 1.048343 7.767618 -0.433709 -2.484294 1.100525 -0.911682 2.385950 1.134335 -0.630034 2.448390 -3.704192 18.083218 -6.602217 -6.441795 13.058560 0.373094 -0.000000 0.000000 -0.000000 -0.071378 -8.521756 -0.240025 -54.985840 0.003395 -41.625208 11.007689 -65.583572 12.670307 -50.178022 12.302013 4.547009 17.589885 -5.614109 -12.935917 10.897049 26.231577 8.652540 20.924631 51.117716 0.214383 0.000003 0.000004 0.000000 10.030128 13.648619 -84.751993 0.876918 0.062090 -64.595483 1.141258 1.253185 -55.016313 -0.000000 0.000002 0.000001 8.573007 2.179148 -75.148958 -0.207668 1.009148 -57.855076 0.443081 1.742140 -53.581256 -0.000000 0.000000 0.000003 7.548223 1.149492 -63.780450 1.807872 1.475542 -64.568019 0.131632 -0.912251 -43.272442 0.000001 0.000000 0.000004 13.980855 1.201538 -55.004384 0.370887 1.162839 -65.441934 1.983816 2.149093 -57.665149 -0.000001 0.000000 -0.000002 4.844300 7.750221 5.483586 -0.749437 -2.300632 61.869909 11.388021 19.405346 -4.097594 -0.911193 5.736687 6.582366 15.788754 -2.895438 -17.254890 -2.082225 -31.252159 7.393652 -6.393796 -4.425919 2.306023 0.000002 -0.000002 -0.000001 2.331831 -3.831347 8.681241 -2.269612 -2.394523 18.876345 -2.034289 -4.742233 14.369938 -0.000002 -0.000005 -0.000002 -1.768862 -5.730824 13.937203 0.133319 -4.965205 27.224362 -0.689214 -1.188476 16.369761 -0.000001 0.000000 -0.000008 -3.310310 -8.475861 12.054758 4.026762 -4.054041 33.517910 2.038113 -3.276858 15.848436 -0.000000 0.000000 -0.000002 -6.807249 -11.254354 23.607832 10.743911 -2.594873 35.073667 6.367284 -3.078078 15.678873 -0.000001 -0.000002 -0.000001 -13.586287 18.025745 14.214248 17.116971 10.526623 -2.454358 -4.755231 -1.695230 -8.494527 -0.145165 0.007831 -0.311784 0.000000 0.000000 0.000000 -9.508606 -1.109068 -9.793444 13.187154 9.983515 1.015683 -6.876886 -1.414223 7.734245 -1.288147 -0.016742 0.149983 -0.000000 -0.000001 0.000000 
-1.232340 92.555458 1.289865 2.838834 -28.948001 1.044323 7.733115 -0.480852 -2.451517 1.101172 -0.927360 2.388626 1.147139 -0.649812 2.451999 -3.633938 18.115550 -6.654845 -6.498341 13.077324 0.408553 -0.000000 -0.000000 0.000000 -0.085777 -8.521645 -0.321527 -54.883753 -0.020611 -41.570017 10.782919 -65.554626 12.463165 -50.181543 12.281671 4.564296 17.589882 -5.614110 -12.935916 10.897045 26.231577 8.652538 20.924628 51.117716 0.214383 -0.000000 0.000002 0.000000 10.030128 13.648619 -84.751986 0.876914 0.062089 -64.595483 1.141258 1.253182 -55.016313 -0.000001 0.000002 0.000001 8.573007 2.179147 -75.148958 -0.207667 1.009146 -57.855083 0.443082 1.742140 -53.581260 -0.000000 -0.000000 0.000007 7.548222 1.149490 -63.780443 1.807873 1.475542 -64.568019 0.131633 -0.912249 -43.272442 0.000000 -0.000002 0.000008 13.980857 1.201538 -55.004388 0.370886 1.162840 -65.441928 1.983815 2.149094 -57.665149 -0.000000 0.000003 0.000001 4.842322 7.745888 5.449832 -0.659704 -2.360947 61.876972 11.465328 19.637489 -4.168420 -0.900926 5.617396 6.641055 15.800032 -2.999996 -17.278430 -2.023769 -31.325150 7.408020 -6.330725 -4.558171 2.270497 0.000001 -0.000001 -0.000001 2.344681 -3.869262 8.778477 -2.265472 -2.397416 18.976477 -2.025883 -4.744909 14.470292 -0.000000 0.000001 -0.000001 -1.766693 -5.739777 14.044760 0.142747 -4.965472 27.332926 -0.689211 -1.190438 16.477570 0.000001 0.000000 0.000003 -3.333111 -8.434413 12.173993 4.026467 -4.051903 33.630605 2.044606 -3.272909 15.962272 -0.000000 -0.000001 -0.000003 -6.918221 -11.223621 23.758678 10.745555 -2.593842 35.186898 6.378204 -3.070825 15.832365 -0.000000 -0.000002 0.000005 -13.568113 18.027419 14.210140 17.108575 10.512625 -2.455739 -4.743983 -1.697194 -8.492797 -0.145165 0.007831 -0.311784 0.000000 0.000000 0.000000 -9.487571 -1.112372 -9.794117 13.209538 9.967641 1.014787 -6.898366 -1.412794 7.725122 -1.288147 -0.016746 0.149983 -0.000000 -0.000002 0.000000 
-1.240209 92.556328 1.283325 2.807668 -28.938709 1.037518 7.703148 -0.523415 -2.432850 1.101807 -0.942561 2.391220 1.159616 -0.669371 2.455576 -3.572282 18.140363 -6.693129 -6.553682 13.094186 0.443009 -0.000000 -0.000000 -0.000000 -0.097280 -8.521462 -0.386713 -54.797040 -0.044146 -41.531655 10.686061 -65.531403 12.372571 -50.185607 12.260011 4.582836 17.589885 -5.614108 -12.935915 10.897046 26.231577 8.652539 20.924626 51.117716 0.214386 0.000001 0.000002 -0.000002 10.030125 13.648620 -84.751986 0.876918 0.062089 -64.595483 1.141259 1.253182 -55.016317 -0.000000 0.000003 -0.000003 8.573007 2.179148 -75.148951 -0.207668 1.009148 -57.855070 0.443082 1.742140 -53.581256 -0.000000 -0.000001 0.000003 7.548221 1.149491 -63.780443 1.807873 1.475541 -64.568025 0.131631 -0.912251 -43.272445 0.000001 -0.000001 0.000004 13.980854 1.201538 -55.004391 0.370887 1.162838 -65.441928 1.983815 2.149086 -57.665142 -0.000004 0.000005 -0.000001 4.840403 7.741663 5.416694 -0.596388 -2.404533 61.892046 11.540599 19.809353 -4.227563 -0.894830 5.527867 6.700994 15.811166 -3.103902 -17.301916 -1.965507 -31.397932 7.422348 -6.268411 -4.688786 2.235596 -0.000001 0.000003 -0.000000 2.357616 -3.906868 8.875825 -2.261289 -2.401409 19.076370 -2.017606 -4.748464 14.570329 -0.000000 -0.000001 0.000001 -1.764311 -5.749619 14.151673 0.152093 -4.965740 27.440895 -0.688107 -1.192496 16.584794 -0.000001 0.000001 -0.000004 -3.354892 -8.394840 12.291385 4.026176 -4.049865 33.742261 2.051032 -3.268932 16.074889 -0.000001 -0.000000 0.000000 -7.024891 -11.194250 23.907180 10.747210 -2.592740 35.299913 6.388982 -3.063701 15.983783 -0.000000 -0.000004 0.000005 -13.540282 18.028720 14.208422 17.096679 10.501621 -2.457189 -4.731357 -1.698238 -8.493074 -0.145165 0.007831 -0.311783 -0.000000 0.000000 0.000000 -9.462115 -1.116274 -9.794390 13.230676 9.955221 1.014113 -6.916285 -1.410194 7.715191 -1.288147 -0.016743 0.149983 0.000000 -0.000001 0.000000 
-1.252287 92.558670 1.275716 2.759479 -28.937729 1.018930 7.682432 -0.554500 -2.440278 1.102381 -0.956304 2.393566 1.174445 -0.687964 2.459038 -3.543298 18.148098 -6.691457 -6.592859 13.107189 0.462795 -0.000000 0.000000 -0.000000 -0.106066 -8.521352 -0.436516 -54.737546 -0.074977 -41.497835 10.715424 -65.497812 12.397155 -50.188916 12.236593 4.595525 17.589885 -5.614107 -12.935916 10.897044 26.231577 8.652543 20.924636 51.117723 0.214380 -0.000001 0.000003 -0.000001 10.030130 13.648621 -84.751986 0.876918 0.062087 -64.595476 1.141259 1.253184 -55.016313 0.000001 0.000000 -0.000002 8.573007 2.179148 -75.148958 -0.207670 1.009148 -57.855076 0.443084 1.742141 -53.581260 -0.000001 0.000001 0.000003 7.548221 1.149490 -63.780443 1.807873 1.475542 -64.568019 0.131631 -0.912252 -43.272442 0.000001 -0.000001 0.000004 13.980856 1.201537 -55.004394 0.370889 1.162838 -65.441934 1.983815 2.149090 -57.665149 -0.000001 0.000003 -0.000001 4.838322 7.737253 5.382335 -0.586541 -2.415387 61.928308 11.606634 19.854544 -4.258701 -0.897314 5.502291 6.758924 15.822231 -3.207462 -17.325168 -1.907231 -31.470831 7.436721 -6.206747 -4.818105 2.201385 -0.000001 0.000000 0.000002 2.370691 -3.944187 8.973543 -2.257089 -2.405387 19.176291 -2.009298 -4.752029 14.670596 -0.000001 0.000000 -0.000003 -1.761811 -5.759658 14.258248 0.161414 -4.965998 27.548308 -0.685957 -1.194657 16.691712 0.000001 0.000001 -0.000006 -3.375596 -8.357156 12.407727 4.025881 -4.047907 33.852815 2.057405 -3.264972 16.186650 -0.000002 0.000000 -0.000002 -7.127267 -11.166225 24.053725 10.748845 -2.591560 35.412847 6.399658 -3.056687 16.133349 0.000002 0.000000 0.000000 -13.493128 18.029550 14.214034 17.086555 10.494843 -2.457766 -4.722985 -1.693355 -8.500042 -0.145165 0.007831 -0.311784 0.000000 -0.000000 0.000000 -9.421186 -1.122382 -9.794298 13.244200 9.952288 1.014962 -6.926326 -1.407528 7.707042 -1.288147 -0.016741 0.149983 0.000000 0.000001 0.000000 
